<svg xmlns="http://www.w3.org/2000/svg" viewBox="0 0 128 128" width="128" height="128" shape-rendering="crispEdges">

  <!-- Background -->
  <rect width="128" height="128" fill="#080814"/>

  <!-- ═══ WAND STAR (centre gx=7, gy=4; each pixel 4×4) ═══ -->
  <rect x="28"  y="8"  width="4" height="4" fill="#FFFFA0"/>
  <rect x="24"  y="12" width="4" height="4" fill="#FFD700"/>
  <rect x="28"  y="12" width="4" height="4" fill="#FFFFA0"/>
  <rect x="32"  y="12" width="4" height="4" fill="#FFD700"/>
  <rect x="20"  y="16" width="4" height="4" fill="#FFD700"/>
  <rect x="24"  y="16" width="4" height="4" fill="#FFD700"/>
  <rect x="28"  y="16" width="4" height="4" fill="#FFFFA0"/>
  <rect x="32"  y="16" width="4" height="4" fill="#FFD700"/>
  <rect x="36"  y="16" width="4" height="4" fill="#FFD700"/>
  <rect x="24"  y="20" width="4" height="4" fill="#FFD700"/>
  <rect x="28"  y="20" width="4" height="4" fill="#FFFFA0"/>
  <rect x="32"  y="20" width="4" height="4" fill="#FFD700"/>
  <rect x="28"  y="24" width="4" height="4" fill="#FFFFA0"/>

  <!-- ═══ WAND SHAFT (2-pixel staircase, dark left / light right) ═══ -->
  <rect x="24" y="28" width="4" height="4" fill="#A06428"/> <rect x="28" y="28" width="4" height="4" fill="#D2924C"/>
  <rect x="24" y="32" width="4" height="4" fill="#A06428"/> <rect x="28" y="32" width="4" height="4" fill="#D2924C"/>
  <rect x="20" y="36" width="4" height="4" fill="#A06428"/> <rect x="24" y="36" width="4" height="4" fill="#D2924C"/>
  <rect x="20" y="40" width="4" height="4" fill="#A06428"/> <rect x="24" y="40" width="4" height="4" fill="#D2924C"/>
  <rect x="16" y="44" width="4" height="4" fill="#A06428"/> <rect x="20" y="44" width="4" height="4" fill="#D2924C"/>
  <rect x="16" y="48" width="4" height="4" fill="#A06428"/> <rect x="20" y="48" width="4" height="4" fill="#D2924C"/>
  <rect x="12" y="52" width="4" height="4" fill="#A06428"/> <rect x="16" y="52" width="4" height="4" fill="#D2924C"/>
  <rect x="12" y="56" width="4" height="4" fill="#A06428"/> <rect x="16" y="56" width="4" height="4" fill="#D2924C"/>
  <rect x="8"  y="60" width="4" height="4" fill="#A06428"/> <rect x="12" y="60" width="4" height="4" fill="#D2924C"/>
  <rect x="8"  y="64" width="4" height="4" fill="#A06428"/> <rect x="12" y="64" width="4" height="4" fill="#D2924C"/>
  <rect x="8"  y="68" width="4" height="4" fill="#A06428"/> <rect x="12" y="68" width="4" height="4" fill="#D2924C"/>

  <!-- ═══ SPARKLES ═══ -->
  <rect x="40"  y="8"  width="4" height="4" fill="#FFE040"/>
  <rect x="48"  y="12" width="4" height="4" fill="#FFE040"/>
  <rect x="44"  y="20" width="4" height="4" fill="#FFE040"/>
  <rect x="52"  y="16" width="4" height="4" fill="#FFE040"/>
  <rect x="36"  y="28" width="4" height="4" fill="#FFE040"/>
  <rect x="44"  y="32" width="4" height="4" fill="#FFE040"/>
  <rect x="48"  y="40" width="4" height="4" fill="#FFE040"/>
  <rect x="40"  y="48" width="4" height="4" fill="#FFE040"/>
  <rect x="48"  y="56" width="4" height="4" fill="#FFE040"/>
  <rect x="0"   y="24" width="4" height="4" fill="#FFE040"/>
  <rect x="0"   y="36" width="4" height="4" fill="#FFE040"/>
  <rect x="4"   y="48" width="4" height="4" fill="#FFE040"/>
  <rect x="0"   y="60" width="4" height="4" fill="#FFE040"/>
  <rect x="4"   y="72" width="4" height="4" fill="#FFE040"/>
  <rect x="0"   y="84" width="4" height="4" fill="#FFE040"/>
  <rect x="16"  y="80" width="4" height="4" fill="#FFE040"/>
  <rect x="12"  y="92" width="4" height="4" fill="#FFE040"/>
  <rect x="20"  y="100" width="4" height="4" fill="#FFE040"/>
  <rect x="8"   y="108" width="4" height="4" fill="#FFE040"/>
  <rect x="52"  y="68" width="4" height="4" fill="#FFE040"/>
  <rect x="48"  y="80" width="4" height="4" fill="#FFE040"/>
  <rect x="52"  y="92" width="4" height="4" fill="#FFE040"/>
  <rect x="48"  y="108" width="4" height="4" fill="#FFE040"/>

  <!-- ═══ API DOCUMENT PAGE (cols 14-29, rows 2-28 → x=56 y=8 w=64 h=108) ═══ -->
  <rect x="56" y="8" width="64" height="108" fill="#B8C4D8"/>

  <!-- Corner fold: 3-step staircase cut at top-right -->
  <rect x="108" y="8"  width="12" height="4" fill="#080814"/>
  <rect x="112" y="12" width="8"  height="4" fill="#080814"/>
  <rect x="116" y="16" width="4"  height="4" fill="#080814"/>

  <!-- Fold-face pixels (one per step) -->
  <rect x="104" y="8"  width="4" height="4" fill="#7888A0"/>
  <rect x="108" y="12" width="4" height="4" fill="#7888A0"/>
  <rect x="112" y="16" width="4" height="4" fill="#7888A0"/>

  <!-- Header bar: rows 3-4, cols 15-25 (x=60 w=44 y=12 h=8) -->
  <rect x="60" y="12" width="44" height="8" fill="#8898B0"/>

  <!-- Separator rule: row 6 (y=24 h=4) -->
  <rect x="60" y="24" width="56" height="4" fill="#9AAABB"/>

  <!-- GET row (y=32 h=8): badge green + path gray -->
  <rect x="60"  y="32" width="12" height="8" fill="#3A8040"/>
  <rect x="76"  y="32" width="36" height="8" fill="#606878"/>

  <!-- POST row (y=48 h=8): badge blue + path gray -->
  <rect x="60"  y="48" width="12" height="8" fill="#2A50A8"/>
  <rect x="76"  y="48" width="36" height="8" fill="#606878"/>

  <!-- DELETE row (y=64 h=8): badge red + path gray -->
  <rect x="60"  y="64" width="12" height="8" fill="#A83030"/>
  <rect x="76"  y="64" width="36" height="8" fill="#606878"/>

  <!-- PATCH row (y=80 h=8): badge orange + path gray -->
  <rect x="60"  y="80" width="12" height="8" fill="#A86020"/>
  <rect x="76"  y="80" width="36" height="8" fill="#606878"/>

</svg>
